<svg xmlns="http://www.w3.org/2000/svg" viewBox="0 0 700.025 172.08"><path d="M144.167 58.341a3.664 3.664 0 00-1.073-2.59L114.76 27.415a3.664 3.664 0 00-5.182 0l-5.1 5.1a18.815 18.815 0 00-21.45 3.63l-12.075 12.07-3.126-.07-8.012-8.011a3.664 3.664 0 00-5.18 0L26.3 68.47a3.663 3.663 0 000 5.18l3.927 3.928-1.35 12.815a11.588 11.588 0 008.683 18.856 11.55 11.55 0 0011.229 11.223 11.56 11.56 0 0011.233 11.234 11.582 11.582 0 0017.237 9.763l4.745 4.745a11.591 11.591 0 0019.791-7.847 11.56 11.56 0 0011.229-11.234 11.54 11.54 0 0011.223-11.223 11.595 11.595 0 007.853-19.79l-5.278-5.278a35.51 35.51 0 004.812-18.45l11.46-11.46a3.664 3.664 0 001.073-2.59zM34.894 94.64l1.85-1.85a3.554 3.554 0 01.953-.954l1.85-1.85a4.276 4.276 0 016.048 6.048l-3.808 3.808-.846.845a4.276 4.276 0 01-6.047-6.047zm9.976 14.252a4.248 4.248 0 011.252-3.024l.846-.845 7.139-7.14a4.276 4.276 0 116.047 6.048l-.005.006-7.133 7.133-.846.846a4.277 4.277 0 01-7.3-3.024zm11.229 11.229a4.247 4.247 0 011.252-3.024l.002-.002.844-.844 10.467-10.467.002-.002a4.276 4.276 0 016.048 6.048l-3.328 3.328-.003.002-.003.003-7.133 7.133-.002.002-.846.846-.002.002a4.276 4.276 0 01-7.298-3.025zm12.48 14.252a4.281 4.281 0 010-6.046l.846-.847.002-.002 7.141-7.14a4.276 4.276 0 016.043 6.051l-7.626 7.626-.358.358a4.281 4.281 0 01-6.048 0zm59.592-30.048a4.276 4.276 0 01-7.3 3.024l-.846-.846a3.664 3.664 0 00-5.18 5.182l.845.845a4.276 4.276 0 01-6.046 6.049l-.846-.847a3.664 3.664 0 10-5.183 5.18l.846.846a4.276 4.276 0 11-6.047 6.048l-.846-.846a3.664 3.664 0 00-5.181 5.181l.844.844.002.002a4.276 4.276 0 11-6.048 6.047l-4.428-4.428 5.033-5.034.003-.003a11.592 11.592 0 00-5.019-19.354A11.608 11.608 0 0068.282 97.71a11.59 11.59 0 00-14.557-7.888 11.592 11.592 0 00-16.682-7.008l.653-6.207a3.663 3.663 0 00-1.052-2.974L34.07 71.06l23.155-23.154 6.46 6.46a3.663 3.663 0 002.51 1.073l2.547.057v19.106a11.603 11.603 0 1023.206 0v-8.27l34.97 34.968a4.247 4.247 0 011.252 3.024zM91.949 55.969v-3.5a3.664 3.664 0 00-7.327 0v22.133a4.276 4.276 0 01-8.552 0v-21.14l12.137-12.137a11.47 11.47 0 0116.203 0l11.568 11.569a28.306 28.306 0 015.431 32.535zm38.367 7.378a35.683 35.683 0 00-9.157-15.635l-10.758-10.758 1.767-1.767 23.154 23.154z"/><path d="M86.04 172.08a86.04 86.04 0 1186.04-86.04 86.138 86.138 0 01-86.04 86.04zm0-164.753a78.713 78.713 0 1078.713 78.713A78.802 78.802 0 0086.04 7.327zm212.224 24.19q16.271 12.725 21.51 34.603H292.09a36.23 36.23 0 00-13.372-16.832q-9.076-6.172-21.792-6.172a34.432 34.432 0 00-31.982 20.199q-4.677 9.726-4.676 22.819 0 12.908 4.676 22.632a34.44 34.44 0 0031.982 20.201q12.718 0 21.792-6.172a36.238 36.238 0 0013.372-16.835h27.683q-5.24 21.884-21.51 34.603-16.272 12.722-40.961 12.718-18.894 0-33.388-8.51a57.94 57.94 0 01-22.444-23.848q-7.954-15.332-7.949-34.789 0-19.64 7.949-34.976a58.129 58.129 0 0122.352-23.847q14.4-8.509 33.48-8.512 24.689 0 40.96 12.718zm67.706 9.541v34.228h46.761v20.199h-46.76v35.54h52.372v21.134H339.6V20.11h78.743v20.95zm101.936 62.096v49.005h-26.37V20.11h48.068q23.377 0 35.256 11.223 11.876 11.222 11.877 30.486 0 18.893-12.25 30.115-12.254 11.222-34.883 11.221zm42.085-41.336q0-9.91-5.424-15.15-5.426-5.233-17.769-5.237h-18.892V82.02h18.892q23.19 0 23.193-20.201zm190.034-40.213V152.16H673.84V61.07l-33.482 91.09H617.54l-33.482-90.714v90.714h-26.37V21.605h31.982l39.652 98.196 38.906-98.196z"/></svg>