<svg xmlns="http://www.w3.org/2000/svg" viewBox="0 0 328.794 328.794"><path d="M275.46 111.473a7 7 0 00-2.05-4.95l-54.14-54.14a7.002 7.002 0 00-9.9 0l-9.745 9.745a35.95 35.95 0 00-40.986 6.933l-23.066 23.066-5.973-.133-15.309-15.308a7 7 0 00-9.899 0l-54.14 54.14a7 7 0 000 9.9l7.502 7.502-2.578 24.486a22.142 22.142 0 0016.59 36.028 22.07 22.07 0 0021.455 21.444 22.088 22.088 0 0021.464 21.465 22.129 22.129 0 0032.934 18.655l9.067 9.067a22.147 22.147 0 0037.814-14.994 22.087 22.087 0 0021.455-21.465 22.05 22.05 0 0021.444-21.444 22.154 22.154 0 0015.005-37.814l-10.084-10.084a67.848 67.848 0 009.194-35.253l21.897-21.897a7 7 0 002.05-4.95zM66.671 180.827l3.536-3.535a6.791 6.791 0 011.822-1.822l3.534-3.535A8.17 8.17 0 0187.12 183.49l-7.276 7.276-1.616 1.616a8.17 8.17 0 01-11.556-11.555zm19.062 27.232a8.117 8.117 0 012.393-5.778l1.616-1.615 13.64-13.64a8.17 8.17 0 1111.555 11.554l-.01.01-13.63 13.63-1.615 1.616a8.171 8.171 0 01-13.95-5.777zm21.455 21.454a8.115 8.115 0 012.393-5.777l.005-.005 1.61-1.61 20-20 .005-.005a8.17 8.17 0 1111.555 11.555l-6.36 6.36-.004.004-.005.005-13.63 13.63-.005.004-1.616 1.616-.002.003a8.17 8.17 0 01-13.946-5.78zm23.847 27.233a8.18 8.18 0 01-.002-11.553l.002-.002 1.616-1.615.004-.005 13.644-13.644a8.17 8.17 0 0111.547 11.563l-14.571 14.571-.685.685a8.18 8.18 0 01-11.555 0zm113.862-57.413a8.17 8.17 0 01-13.947 5.777l-.001-.001-1.616-1.616a7 7 0 00-9.899 9.902l1.615 1.614a8.17 8.17 0 01-11.552 11.559l-.001-.002-1.616-1.616a7 7 0 10-9.902 9.896l1.615 1.616.001.001.001.001a8.17 8.17 0 11-11.555 11.555l-1.616-1.616a7 7 0 10-9.9 9.9l1.612 1.61.005.006a8.17 8.17 0 11-11.556 11.554l-8.461-8.462 9.617-9.618.006-.004a22.148 22.148 0 00-9.59-36.98 22.18 22.18 0 00-27.69-27.717 22.145 22.145 0 00-27.814-15.07 22.149 22.149 0 00-31.875-13.39l1.249-11.86a7 7 0 00-2.012-5.682l-4.914-4.915 44.24-44.24 12.345 12.344a6.999 6.999 0 004.793 2.048l4.868.11v36.505a22.17 22.17 0 0044.341 0v-15.803l66.815 66.816a8.115 8.115 0 012.394 5.777zm-69.209-92.393v-6.687a7 7 0 00-14 0v42.29a8.17 8.17 0 01-16.34 0v-40.391l23.19-23.191a21.917 21.917 0 0130.959 0l22.103 22.103a54.084 54.084 0 0110.378 62.166zm73.308 14.098A68.18 68.18 0 00231.5 91.165l-20.556-20.556 3.376-3.377 44.241 44.24z"/><path d="M164.397 328.794C73.748 328.794 0 255.046 0 164.397S73.748 0 164.397 0c90.65 0 164.397 73.748 164.397 164.397s-73.748 164.397-164.397 164.397zm0-314.794C81.467 14 14 81.468 14 164.397s67.468 150.397 150.397 150.397c82.93 0 150.397-67.468 150.397-150.397S247.327 14 164.397 14z"/></svg>