<svg data-name="Layer 1" xmlns="http://www.w3.org/2000/svg" viewBox="0 0 153.071 153.071"><path d="M76.535 60.693a15.843 15.843 0 11-15.842 15.842 15.86 15.86 0 0115.842-15.842m0-4a19.843 19.843 0 1019.843 19.842 19.843 19.843 0 00-19.843-19.842z" fill="#1d1d1b"/><path d="M76.535 32.346a44.189 44.189 0 11-44.189 44.19 44.239 44.239 0 0144.19-44.19m0-4a48.189 48.189 0 1048.188 48.19 48.189 48.189 0 00-48.189-48.19z" fill="#1d1d1b"/><path d="M76.535 4A72.535 72.535 0 114 76.535 72.618 72.618 0 0176.535 4m0-4a76.535 76.535 0 1076.536 76.535A76.535 76.535 0 0076.535 0z" fill="#1d1d1b"/></svg>