<svg data-name="Layer 1" xmlns="http://www.w3.org/2000/svg" viewBox="0 0 53.788 53.79"><path d="M26.895 44.106a17.21 17.21 0 1117.21-17.211 17.23 17.23 0 01-17.21 17.211zm0-33.422a16.21 16.21 0 1016.21 16.21 16.229 16.229 0 00-16.21-16.21z" fill="#010101"/><path d="M26.895 53.79a26.895 26.895 0 1126.893-26.895A26.925 26.925 0 0126.895 53.79zm0-52.79a25.895 25.895 0 1025.893 25.895A25.924 25.924 0 0026.895 1zm0 33.423a7.528 7.528 0 117.527-7.528 7.537 7.537 0 01-7.527 7.528zm0-14.056a6.528 6.528 0 106.527 6.528 6.536 6.536 0 00-6.527-6.528z" fill="#010101"/></svg>