<svg data-name="Layer 1" xmlns="http://www.w3.org/2000/svg" viewBox="0 0 153.071 153.071"><path d="M76.535 63.693a12.843 12.843 0 11-12.842 12.842 12.857 12.857 0 0112.842-12.842m0-7a19.843 19.843 0 1019.843 19.842 19.843 19.843 0 00-19.843-19.842z" fill="#1d1d1b"/><path d="M76.535 35.346a41.189 41.189 0 11-41.189 41.19 41.236 41.236 0 0141.19-41.19m0-7a48.189 48.189 0 1048.188 48.19 48.189 48.189 0 00-48.189-48.19z" fill="#1d1d1b"/><path d="M76.535 7A69.535 69.535 0 117 76.535 69.614 69.614 0 0176.535 7m0-7a76.535 76.535 0 1076.536 76.535A76.535 76.535 0 0076.535 0z" fill="#1d1d1b"/></svg>