<svg version="1.0" xmlns="http://www.w3.org/2000/svg" width="933.333" height="933.333" viewBox="0 0 700 700"><path d="M327.8.5c-.2.1-4.1.6-8.7.9-26.4 2.1-55.7 8.4-82.8 17.7C124.3 57.7 39.4 150 10.6 264.5c-2.1 8.4-3.2 13.8-6.1 29.5-.4 2.1-1.8 12.1-2.1 14.5-2.6 24.7-2.6 67.8 0 82.2.2 1 .7 4.5 1.1 7.8.4 3.2.9 6.8 1.1 8 .2 1.1.6 3.3.8 5 1.1 7.5 6.2 28.3 10.3 41.5 17.1 55.2 46.4 103.9 87.3 144.7 39.4 39.4 87.4 68.6 141 85.8 16.3 5.2 41.7 11 56.5 13 2.2.2 5.6.7 7.5 1 19.7 2.8 64.3 2.7 85.4-.2 3.4-.4 19.6-3.2 34.1-5.9 5.5-1 32.8-9.2 42.6-12.8 101.8-36.9 181.3-120.3 213.8-224.1 3.3-10.7 7.2-25.2 8.6-32.5 1.5-7.6 3.5-19.3 4-23 .3-2.5.8-6.2 1.1-8.4 1.3-8.2 1.4-10.9 1.8-35.1.3-22.5-.1-32.2-1.9-47.2-.8-7.4-1.3-10.3-2.5-17.3-.6-3.6-1.3-7.9-1.6-9.5-.3-1.7-2.1-9.1-3.9-16.5-21.5-86.9-76.4-162.6-153.2-211.3-11.7-7.4-35-19.8-46.3-24.6-3-1.3-7.3-3.2-9.5-4.1-12.5-5.3-41.8-14.2-58-17.5-4.4-.9-8.9-1.9-10-2.1-1.1-.2-3.8-.6-6-.9-2.2-.3-5.1-.7-6.5-1-1.3-.2-5.4-.7-9-1.1-3.6-.3-7.8-.8-9.5-1.1-3.3-.5-53.2-1.3-53.7-.8zm52.7 32.8c1.1.3 4.9.8 8.5 1.1 22.4 2.4 55.7 11 80 20.8 12.7 5.2 40.2 18.8 43.1 21.4.8.8 1.9 1.4 2.3 1.4 1.4 0 32.6 21.6 34.6 23.9.3.3 3.4 3 7 6 10.6 8.8 33.9 32.9 42.9 44.4 7.2 9.1 22.1 30.2 22.1 31.2 0 .2 2 3.8 4.5 8 12.4 21 24.2 49 31 74 1.5 5.5 2.9 11.1 3.2 12.5.2 1.4.9 4.5 1.4 7 1.1 4.7 1.3 5.9 2.9 15 2.6 14.9 3.5 27.5 3.5 49.5 0 30.7-2.4 51.2-9.1 78-2.7 10.5-12 39.3-13.4 41-.4.5-1.1 2.1-1.5 3.5-1.3 4.4-12.6 27.2-18.2 37-9.6 16.5-23.8 36.4-35.2 49.5-4.3 5-28.6 29.1-32.6 32.5-40 33.3-80 54-130.5 67.5-8.5 2.3-34.1 6.8-45.5 8-9.1 1-50.1 1.3-58 .4-12.4-1.3-19-2.1-21-2.5-1-.2-3.7-.6-6-.9-2.2-.4-6.8-1.3-10.3-2-3.4-.8-7.5-1.7-9-2-1.6-.2-6.9-1.7-11.8-3.1-4.9-1.4-10.2-3-11.9-3.4-6.9-1.7-29-10.7-42.4-17.2-24.9-12.2-47.6-27-69.1-45.2-8.4-7.1-32.2-32-39.9-41.6-36.9-46.4-60.6-102.1-67.6-159.5-3.1-25.8-2.6-66.3 1-86.5.3-1.4.7-4.3 1.1-6.5 3.3-23.1 14.2-57.5 26.4-83.1 7.8-16.5 22-40.3 30.7-51.4 17.4-22.3 35.7-41.9 50.8-54.6 31.2-26.2 67.7-46.6 105.5-59.1 7.4-2.5 14.2-4.6 15-4.8.8-.2 4.2-1 7.5-1.8 8.3-2.1 25-5.5 31-6.2 2.8-.4 6.1-.8 7.4-1 1.2-.2 6-.7 10.5-1.1 4.4-.3 8.3-.8 8.5-1 .5-.4 48.3.4 50.6.9z"/><path d="M340.7 129.6c-.1.1-3.8.4-8.2.8-9.3.7-12.4 1.2-24.5 3.2-24.6 4.3-56.3 17.2-79.2 32.4-46 30.7-78.2 75.7-92.1 129-2.4 9.1-2.9 11.8-4.3 20.4-.3 2.1-.7 4.8-1 6-1.6 8.3-2.1 31.4-1 45.1 4.2 53.8 25.8 100.6 63.6 138.5 13.7 13.7 14.4 14.3 25.7 22.7 27.1 20 64.8 35.7 95.9 39.9 2.7.3 5.1.8 5.4.9 1 .6 19.5 1.8 28.5 1.8 13.5.1 25-1 41.7-3.9 21.9-3.7 51.9-15.2 73-28 17.2-10.5 26.2-17.7 42.8-34.4 18-18 32.8-39.1 42.2-59.9 1.6-3.6 3.5-7.9 4.3-9.5 3.9-8.6 10.9-31.8 13-43.1 6.6-35.7 4-78-6.5-108.5-5.1-14.8-13.1-32.8-19.2-43.5-2.7-4.6-12-18.8-12.8-19.5-.3-.3-3-3.7-5.9-7.5-6.8-8.8-25.3-27.3-35.1-35.1-29.8-23.5-66.8-39.8-101.5-44.8-2.3-.4-5.2-.9-6.5-1.1-4.5-.9-37.5-2.5-38.3-1.9zm25.8 32.9c9.2.7 24.5 3.3 32.5 5.6 2.5.7 4.7 1.3 5 1.4 4.2.9 17.1 6 26.9 10.6 46 21.8 81.4 61.7 97.5 109.9 3.7 11 7 25 8 33.5.4 2.7.9 6.6 1.1 8.5 1.2 8.6.6 35.6-.9 43.6-.2 1.1-.7 3.9-1.1 6.4-1.3 8.5-5.6 24.2-9.2 33.8-12.3 32.8-33 61.1-60.7 82.7-2.1 1.6-4.5 3.6-5.2 4.3-.7.6-1.5 1.2-1.8 1.2-.2 0-3.5 2.1-7.3 4.6-9.6 6.5-28.9 15.7-41.8 19.9-16.1 5.3-26.5 7.5-43 9.1-11.7 1.1-33.7.5-42.3-1.1-.9-.1-3.7-.6-6.2-1s-7.2-1.4-10.5-2.2c-3.3-.8-7-1.7-8.2-1.9-4.5-.9-20.2-6.8-29.8-11.3-31.2-14.7-58.3-38.4-77.5-67.7-14-21.3-25.5-52.2-28.5-76.6-.3-2.3-.8-5.9-1.1-7.8-.7-4.9-.7-31.3 0-34.7.3-1.5.8-5.5 1.1-8.8 1.5-15.8 8.6-38.8 17.4-57 14.7-30.1 36.7-55.3 64.6-74 18.8-12.6 43.6-23.1 64.6-27.4 13.9-2.8 15.4-3.1 26.9-3.7 5.8-.4 10.6-.7 10.7-.8.3-.3 6.1 0 18.8.9z"/><path d="M335.5 260.5c-21.9 3.5-43.6 16.3-56.7 33.7-13.2 17.3-18.6 32.5-19.3 53.4-1.1 38.2 22.3 73.3 58 86.8 11.2 4.3 18.5 5.8 30 6.1 50.6 1.1 91.8-38.1 93-88.5 1.3-56.4-49.2-100.4-105-91.5zm30.4 33.1c35.5 10.3 52.9 50.1 36.4 82.9-8.2 16.2-24 28-41.8 31.2-8.6 1.5-21.7.6-29.1-2-41.6-14.9-53.5-66.5-22.5-97.5 14.5-14.5 37.4-20.3 57-14.6z"/></svg>